<svg xmlns="http://www.w3.org/2000/svg" viewBox="0 0 87.29 115.17"><defs><style>.cls-1{fill:#531415;stroke:#fff;stroke-miterlimit:10;stroke-width:3px;}</style></defs><g id="Capa_2" data-name="Capa 2"><g id="menu"><path class="cls-1" d="M35.27,1.5c1.91.54,3.89.66,5.8,1.24A30.52,30.52,0,0,1,59.78,18a30.41,30.41,0,0,1,2.43,23c-.57,2.1-2.21,2.95-3.82,2a2.35,2.35,0,0,1-1.09-2.72,40.68,40.68,0,0,0,1-5.37A26,26,0,0,0,6.91,27.65a25.55,25.55,0,0,0,.43,11.6c.09.32.19.63.26,1a2.56,2.56,0,0,1-1.73,3.11,2.5,2.5,0,0,1-3-1.83,29.13,29.13,0,0,1-1.32-9.27A31,31,0,0,1,28.81,1.72c.19,0,.45.07.54-.22Z"/><path class="cls-1" d="M43.67,40.84c0,2.95,0,5.91,0,8.87,0,.75.11,1,1,.87a10.67,10.67,0,0,1,11.47,5,.86.86,0,0,0,1.15.4c5.55-1.52,9.81.07,13,4.91.38.58.71.41,1.17.28a10.71,10.71,0,0,1,10.68,2.43,9.9,9.9,0,0,1,3.51,7.29c.09,5.5.43,11-.2,16.52-1.25,10.84-6.38,19-16.72,23.36a42.83,42.83,0,0,1-16.8,2.94,59.87,59.87,0,0,1-17.09-2.16c-11.21-3.33-18.06-10.6-20.13-22.21A49.27,49.27,0,0,1,14,76.76a10.65,10.65,0,0,1,6.75-9.32A1.32,1.32,0,0,0,21.72,66q0-16,0-32.09a10.83,10.83,0,0,1,6.34-10.4c7-3.44,15.7,1.68,15.63,9.33C43.65,35.51,43.67,38.17,43.67,40.84Zm-17,14.67q0,11.07,0,22.13a7.84,7.84,0,0,1-.07,1.19.71.71,0,0,1-.74.67.68.68,0,0,1-.73-.66,8.11,8.11,0,0,1-.08-1.09c0-1.86,0-3.73,0-5.59,0-.53-.07-.79-.71-.71a6.28,6.28,0,0,0-5.3,5.12,39.36,39.36,0,0,0,1.24,15,20.59,20.59,0,0,0,11.89,13.72,38.51,38.51,0,0,0,12.34,3.07,55.09,55.09,0,0,0,17-.57,25.16,25.16,0,0,0,10.85-4.88C77.75,98.53,80,92.64,80.6,86c.39-4.66.11-9.34.14-14a6,6,0,0,0-1.61-4.4,5.88,5.88,0,0,0-6.4-1.64c-2.28.73-3.89,2.12-4,4.74,0,.62-.32,1.09-1,1.06s-.92-.5-.92-1.13c0-1.53,0-3.07,0-4.6a6,6,0,0,0-6-5.67c-3.56,0-6.07,2.47-6,5.22,0,.69-.31,1.15-1,1.11s-.91-.52-.92-1.14c0-1.46,0-2.92,0-4.38a6,6,0,0,0-11.86-1.39,9,9,0,0,0-.22,1.62c-.05.66-.31,1.15-1.06,1.11s-.91-.5-.91-1.13v-.65q0-13.69,0-27.38a5.88,5.88,0,0,0-7.16-5.81,6,6,0,0,0-4.89,6.23C26.68,41,26.7,48.25,26.7,55.51Z"/><path class="cls-1" d="M32.44,11.88A20.66,20.66,0,0,1,53,32.07a2.61,2.61,0,0,1-1.52,2.67,2.46,2.46,0,0,1-2.64-.51A3.48,3.48,0,0,1,48,31.71a15.15,15.15,0,0,0-9-13.36A15.58,15.58,0,0,0,17,30c-.13.87-.11,1.75-.24,2.61a2.46,2.46,0,0,1-2.65,2.32,2.49,2.49,0,0,1-2.28-2.72,20.5,20.5,0,0,1,.92-5.81A20.72,20.72,0,0,1,32.44,11.88Z"/><path class="cls-1" d="M26.7,55.51c0-7.26,0-14.53,0-21.79a6,6,0,0,1,4.89-6.23,5.88,5.88,0,0,1,7.16,5.81q0,13.68,0,27.38v.65c0,.63.22,1.1.91,1.13s1-.45,1.06-1.11a9,9,0,0,1,.22-1.62,6,6,0,0,1,11.86,1.39c.05,1.46,0,2.92,0,4.38,0,.62.25,1.11.92,1.14s1.05-.42,1-1.11c0-2.75,2.48-5.21,6-5.22a6,6,0,0,1,6,5.67c.09,1.53,0,3.07,0,4.6,0,.63.26,1.1.92,1.13s1-.44,1-1.06c.1-2.62,1.71-4,4-4.74a5.88,5.88,0,0,1,6.4,1.64A6,6,0,0,1,80.74,72c0,4.68.25,9.36-.14,14-.56,6.67-2.85,12.56-8.22,16.9a25.16,25.16,0,0,1-10.85,4.88,55.09,55.09,0,0,1-17,.57,38.51,38.51,0,0,1-12.34-3.07A20.59,20.59,0,0,1,20.3,91.53a39.36,39.36,0,0,1-1.24-15,6.28,6.28,0,0,1,5.3-5.12c.64-.08.72.18.71.71,0,1.86,0,3.73,0,5.59a8.11,8.11,0,0,0,.08,1.09.68.68,0,0,0,.73.66.71.71,0,0,0,.74-.67,7.84,7.84,0,0,0,.07-1.19Q26.71,66.57,26.7,55.51Z"/></g></g></svg>